<?xml version="1.0" encoding="utf-8"?>
<!-- Generator: Adobe Illustrator 21.0.0, SVG Export Plug-In . SVG Version: 6.00 Build 0)  -->
<svg version="1.1" id="LOGO" xmlns="http://www.w3.org/2000/svg" xmlns:xlink="http://www.w3.org/1999/xlink" x="0px" y="0px"
	 viewBox="0 0 518 205" style="enable-background:new 0 0 518 205;" xml:space="preserve">
<style type="text/css">
	.st0{fill:#FF7913;}
</style>
<g>
	<path class="st0" d="M140.5,46c2.8,2.8,4.1,6.1,4.1,9.9c0,4.1-1.4,7.4-4.1,10.2c-2.8,2.8-6.1,4.1-9.9,4.1c-4.1,0-7.4-1.4-10.2-4.1
		c-2.8-2.8-4.1-6.1-4.1-10.2c0-3.9,1.4-7.2,4.1-10.2c2.8-2.8,6.1-4.1,10.2-4.1C134.4,41.6,137.8,43,140.5,46z M319.1,60.4
		c0,3.3,1.1,5.9,3.3,8.1c2.2,2.2,4.8,3.3,8.1,3.3c3.1,0,5.7-1.1,7.9-3.3c2.2-2.2,3.3-4.8,3.3-8.1c0-3.1-1.1-5.7-3.3-7.9
		c-2.2-2.4-4.8-3.5-7.9-3.5c-0.6,0-1.1,0-1.7,0.1c-10-14.7-27.4-28.3-55-35.1c-38.1-9.4-91.2-3.6-140.7,24.3
		c3.6,0.6,6.7,2.3,9.4,5.3c2.2,2.2,3.7,4.7,4.5,7.5c46.7-28.2,93.6-37,131.3-28.4c22.9,5.2,33.4,12.7,44.1,22.8
		c-1,1.3,0.5-0.6-0.2,0.7c-9.2-9-22.4-17-40.6-21c-37.2-8.3-90.2-0.4-134,31.1c0,1.3-0.1,2.5-0.3,3.7
		c43.7-31.8,96.1-41.7,133.6-33.5c20.4,4.5,34.6,13.5,43.9,23.9c-0.9,0.5-1.8,1.1-2.5,1.9C320.2,54.7,319.1,57.4,319.1,60.4z
		 M103.7,80.1c-14.3,0-23.8,1.2-33.4,4.4c-3.5,1.2-4.8,2.7-4.8,4.8v75.1c0,1.7,2.1,4,3.8,4h18.2c1.7,0,2-2.3,2-4v-63.1
		c3-0.6,9.4-0.9,13.7-0.9c2.9,0,4.3-1.2,4.3-2.9V83C107.5,80.9,105.5,80.1,103.7,80.1z M141.5,85.4c0-1.7-1.3-3-3-3h-18
		c-1.7,0-3,1.3-3,3v80c0,1.7,1.3,3,3,3h18c1.7,0,3-1.3,3-3V85.4z M507.5,88.1v79.8c0,21.7-11,30.1-35.9,30.1
		c-12.9,0-23.5-2.3-28.9-4.1c-2.1-0.8-3.2-1.7-3.2-3.9v-10.1c0-1.5,1.9-1.5,3.6-1.5c0.2,0,0.2,0,0.3,0c6.8,0,21,1.2,28.2,1.2
		c10.4,0,11.9-3,11.9-11.7v-1.7c-3,0.6-9,1.4-12.4,1.4c-25.4,0-37.6-15.1-37.6-38.7v-10.2c0-24.4,13.7-38.5,38.1-38.5
		c11.6,0,23.1,1.7,31.5,3.8C507,84.9,507.5,85.7,507.5,88.1z M483.5,101.3c-3-0.5-7.6-1.1-12.5-1.1c-10.7,0-13.5,7.7-13.5,18.4v10.2
		c0,10.5,2.8,18.7,13.5,18.7c3.6,0,9.5-0.4,12.5-0.9V101.3z M52.4,84.4H31.5V68.2c0-1.5-0.4-1.8-1.7-1.8h-0.4L11,65.7
		C9.3,66,7.5,66.4,7.5,68v76.7c0,19,10.2,24.1,26.6,24.1c6.3,0,13.3-0.6,17.5-1.3c1.9-0.3,2.9-1.3,2.9-2.9v-11.3
		c0-1.6-0.6-1.9-2.5-1.9H41c-6.3,0-9.5-1.4-9.5-6.5v-42.5h20.9c1.6,0,2.1-2.3,2.1-3.9V86.7C54.5,85.1,54,84.4,52.4,84.4z
		 M308.5,118.7v11.7c0,23.6-12.3,38.5-37.7,38.5c-3,0-8.3-0.5-12.3-1.1v26.1c0,1.7-0.2,4.5-1.9,4.5h-18.2c-1.7,0-3.9-2.8-3.9-4.5
		V88.4c0-2.4,0.9-3.5,5-4.4c8.6-2.1,20-3.9,31.6-3.9C295.5,80.1,308.5,94.3,308.5,118.7z M284.5,118.7c0-10.7-2.8-18.4-13.5-18.4
		c-5,0-9.5,0.3-12.5,0.8v47c4,0.5,8.9,0.9,12.5,0.9c10.7,0,13.5-8,13.5-18.5V118.7z M342.5,85.4c0-1.7-1.3-3-3-3h-18
		c-1.7,0-3,1.3-3,3v80c0,1.7,1.3,3,3,3h18c1.7,0,3-1.3,3-3V85.4z M226.5,118.7v11.7c0,23.6-12.3,38.5-37.7,38.5
		c-3,0-7.3-0.5-12.3-1.1v26.1c0,1.7-0.1,4.5-1.8,4.5h-18.2c-1.7,0-4-2.8-4-4.5V88.4c0-2.4,0.9-3.5,5-4.4c8.6-2.1,20.1-3.9,31.7-3.9
		C213.5,80.1,226.5,94.3,226.5,118.7z M202.5,118.7c0-10.7-2.8-18.4-13.5-18.4c-5,0-9.5,0.3-12.5,0.8v47c4,0.5,8.9,0.9,12.5,0.9
		c10.7,0,13.5-8,13.5-18.5V118.7z M393.5,81.4H386c-21.7,0-34.5,9.2-34.5,30v53c0,1.7,2.4,4,4.1,4h18.5c1.7,0,2.4-2.3,2.4-4v-53
		c0-6.6,1.7-10,9.5-10h7.5c7.8,0,8,3.4,8,10v53c0,1.7,2.3,4,3.9,4H424c1.7,0,1.5-2.3,1.5-4v-53C425.5,90.7,415.2,81.4,393.5,81.4z"
		/>
	<path class="st0" d="M140.5,46c2.8,2.8,4.1,6.1,4.1,9.9c0,4.1-1.4,7.4-4.1,10.2c-2.8,2.8-6.1,4.1-9.9,4.1c-4.1,0-7.4-1.4-10.2-4.1
		c-2.8-2.8-4.1-6.1-4.1-10.2c0-3.9,1.4-7.2,4.1-10.2c2.8-2.8,6.1-4.1,10.2-4.1C134.4,41.6,137.8,43,140.5,46z M319.1,60.4
		c0,3.3,1.1,5.9,3.3,8.1c2.2,2.2,4.8,3.3,8.1,3.3c3.1,0,5.7-1.1,7.9-3.3c2.2-2.2,3.3-4.8,3.3-8.1c0-3.1-1.1-5.7-3.3-7.9
		c-2.2-2.4-4.8-3.5-7.9-3.5c-0.6,0-1.1,0-1.7,0.1c-10-14.7-27.4-28.3-55-35.1c-38.1-9.4-91.2-3.6-140.7,24.3
		c3.6,0.6,6.7,2.3,9.4,5.3c2.2,2.2,3.7,4.7,4.5,7.5c46.7-28.2,93.6-37,131.3-28.4c22.9,5.2,33.4,12.7,44.1,22.8
		c-1,1.3,0.5-0.6-0.2,0.7c-9.2-9-22.4-17-40.6-21c-37.2-8.3-90.2-0.4-134,31.1c0,1.3-0.1,2.5-0.3,3.7
		c43.7-31.8,96.1-41.7,133.6-33.5c20.4,4.5,34.6,13.5,43.9,23.9c-0.9,0.5-1.8,1.1-2.5,1.9C320.2,54.7,319.1,57.4,319.1,60.4z
		 M103.7,80.1c-14.3,0-23.8,1.2-33.4,4.4c-3.5,1.2-4.8,2.7-4.8,4.8v75.1c0,1.7,2.1,4,3.8,4h18.2c1.7,0,2-2.3,2-4v-63.1
		c3-0.6,9.4-0.9,13.7-0.9c2.9,0,4.3-1.2,4.3-2.9V83C107.5,80.9,105.5,80.1,103.7,80.1z M141.5,85.4c0-1.7-1.3-3-3-3h-18
		c-1.7,0-3,1.3-3,3v80c0,1.7,1.3,3,3,3h18c1.7,0,3-1.3,3-3V85.4z M507.5,88.1v79.8c0,21.7-11,30.1-35.9,30.1
		c-12.9,0-23.5-2.3-28.9-4.1c-2.1-0.8-3.2-1.7-3.2-3.9v-10.1c0-1.5,1.9-1.5,3.6-1.5c0.2,0,0.2,0,0.3,0c6.8,0,21,1.2,28.2,1.2
		c10.4,0,11.9-3,11.9-11.7v-1.7c-3,0.6-9,1.4-12.4,1.4c-25.4,0-37.6-15.1-37.6-38.7v-10.2c0-24.4,13.7-38.5,38.1-38.5
		c11.6,0,23.1,1.7,31.5,3.8C507,84.9,507.5,85.7,507.5,88.1z M483.5,101.3c-3-0.5-7.6-1.1-12.5-1.1c-10.7,0-13.5,7.7-13.5,18.4v10.2
		c0,10.5,2.8,18.7,13.5,18.7c3.6,0,9.5-0.4,12.5-0.9V101.3z M52.4,84.4H31.5V68.2c0-1.5-0.4-1.8-1.7-1.8h-0.4L11,65.7
		C9.3,66,7.5,66.4,7.5,68v76.7c0,19,10.2,24.1,26.6,24.1c6.3,0,13.3-0.6,17.5-1.3c1.9-0.3,2.9-1.3,2.9-2.9v-11.3
		c0-1.6-0.6-1.9-2.5-1.9H41c-6.3,0-9.5-1.4-9.5-6.5v-42.5h20.9c1.6,0,2.1-2.3,2.1-3.9V86.7C54.5,85.1,54,84.4,52.4,84.4z
		 M308.5,118.7v11.7c0,23.6-12.3,38.5-37.7,38.5c-3,0-8.3-0.5-12.3-1.1v26.1c0,1.7-0.2,4.5-1.9,4.5h-18.2c-1.7,0-3.9-2.8-3.9-4.5
		V88.4c0-2.4,0.9-3.5,5-4.4c8.6-2.1,20-3.9,31.6-3.9C295.5,80.1,308.5,94.3,308.5,118.7z M284.5,118.7c0-10.7-2.8-18.4-13.5-18.4
		c-5,0-9.5,0.3-12.5,0.8v47c4,0.5,8.9,0.9,12.5,0.9c10.7,0,13.5-8,13.5-18.5V118.7z M342.5,85.4c0-1.7-1.3-3-3-3h-18
		c-1.7,0-3,1.3-3,3v80c0,1.7,1.3,3,3,3h18c1.7,0,3-1.3,3-3V85.4z M226.5,118.7v11.7c0,23.6-12.3,38.5-37.7,38.5
		c-3,0-7.3-0.5-12.3-1.1v26.1c0,1.7-0.1,4.5-1.8,4.5h-18.2c-1.7,0-4-2.8-4-4.5V88.4c0-2.4,0.9-3.5,5-4.4c8.6-2.1,20.1-3.9,31.7-3.9
		C213.5,80.1,226.5,94.3,226.5,118.7z M202.5,118.7c0-10.7-2.8-18.4-13.5-18.4c-5,0-9.5,0.3-12.5,0.8v47c4,0.5,8.9,0.9,12.5,0.9
		c10.7,0,13.5-8,13.5-18.5V118.7z M393.5,81.4H386c-21.7,0-34.5,9.2-34.5,30v53c0,1.7,2.4,4,4.1,4h18.5c1.7,0,2.4-2.3,2.4-4v-53
		c0-6.6,1.7-10,9.5-10h7.5c7.8,0,8,3.4,8,10v53c0,1.7,2.3,4,3.9,4H424c1.7,0,1.5-2.3,1.5-4v-53C425.5,90.7,415.2,81.4,393.5,81.4z"
		/>
</g>
</svg>
